<?xml version="1.0" encoding="utf-8" standalone="no"?>
<!DOCTYPE svg PUBLIC "-//W3C//DTD SVG 1.1//EN"
  "http://www.w3.org/Graphics/SVG/1.1/DTD/svg11.dtd">
<svg xmlns:xlink="http://www.w3.org/1999/xlink" width="703.838516pt" height="646.367824pt" viewBox="0 0 703.838516 646.367824" xmlns="http://www.w3.org/2000/svg" version="1.1">
 <metadata>
  <rdf:RDF xmlns:dc="http://purl.org/dc/elements/1.1/" xmlns:cc="http://creativecommons.org/ns#" xmlns:rdf="http://www.w3.org/1999/02/22-rdf-syntax-ns#">
   <cc:Work>
    <dc:type rdf:resource="http://purl.org/dc/dcmitype/StillImage"/>
    <dc:date>2026-01-14T14:51:01.766589</dc:date>
    <dc:format>image/svg+xml</dc:format>
    <dc:creator>
     <cc:Agent>
      <dc:title>Matplotlib v3.10.8, https://matplotlib.org/</dc:title>
     </cc:Agent>
    </dc:creator>
   </cc:Work>
  </rdf:RDF>
 </metadata>
 <defs>
  <style type="text/css">*{stroke-linejoin: round; stroke-linecap: butt}</style>
 </defs>
 <g id="figure_1">
  <g id="patch_1">
   <path d="M 0 646.367824 
L 703.838516 646.367824 
L 703.838516 0 
L 0 0 
z
" style="fill: #ffffff"/>
  </g>
  <g id="axes_1">
   <g id="matplotlib.axis_1"/>
   <g id="matplotlib.axis_2"/>
   <g id="patch_2">
    <path d="M 316.757194 101.896881 
C 279.690402 101.896881 243.124164 110.497183 209.943333 127.019276 
C 176.762503 143.54137 147.863235 167.539022 125.525507 197.118964 
C 103.187779 226.698906 88.014892 261.062236 81.203895 297.497897 
C 74.392898 333.933558 76.127744 371.457487 86.271563 407.109275 
L 316.757194 341.530385 
z
" style="fill: #102e42; opacity: 0.5; stroke: #102e42; stroke-linejoin: miter"/>
   </g>
   <g id="patch_3">
    <path d="M 88.364889 414.466523 
C 98.50871 450.118307 116.787525 482.935049 141.759266 510.327732 
C 166.731007 537.720416 197.721217 558.949211 232.284974 572.339263 
C 266.84873 585.729314 304.052513 590.919026 340.961179 587.498911 
C 377.869845 584.078811 413.486557 572.141282 445.001371 552.628122 
L 318.850517 348.887646 
z
" style="fill: #451712; opacity: 0.5; stroke: #451712; stroke-linejoin: miter"/>
   </g>
   <g id="patch_4">
    <path d="M 451.504907 548.601297 
C 483.019728 529.088137 509.581468 502.526354 529.094601 471.011533 
C 548.607733 439.496712 560.545261 403.879996 563.965333 366.971327 
C 567.385405 330.062657 562.195693 292.858874 548.805613 258.295129 
C 535.415533 223.731379 514.186723 192.741183 486.794025 167.769456 
L 325.354053 344.860821 
z
" style="fill: #0e3d22; opacity: 0.5; stroke: #0e3d22; stroke-linejoin: miter"/>
   </g>
   <g id="patch_5">
    <path d="M 488.94702 149.451111 
C 467.067507 129.505324 441.679909 113.785986 414.072627 103.090873 
C 386.465344 92.39576 357.11351 86.908971 327.506967 86.908971 
L 327.507048 326.542476 
z
" style="fill: #492f05; opacity: 0.5; stroke: #492f05; stroke-linejoin: miter"/>
   </g>
   <g id="patch_6">
    <path d="M 321.549864 97.10421 
C 284.483072 97.10421 247.916834 105.704513 214.736003 122.226606 
C 181.555173 138.7487 152.655906 162.746352 130.318177 192.326294 
C 107.980449 221.906236 92.807562 256.269566 85.996565 292.705227 
C 79.185568 329.140888 80.920414 366.664817 91.064233 402.316605 
L 321.549864 336.737715 
z
" style="fill: #3498db"/>
   </g>
   <g id="patch_7">
    <path d="M 93.157559 409.673853 
C 103.301381 445.325637 121.580195 478.142378 146.551936 505.535062 
C 171.523677 532.927746 202.513888 554.156541 237.077644 567.546593 
C 271.6414 580.936644 308.845183 586.126356 345.753849 582.706241 
C 382.662515 579.286141 418.279227 567.348612 449.794041 547.835452 
L 323.643187 344.094976 
z
" style="fill: #e74c3c"/>
   </g>
   <g id="patch_8">
    <path d="M 456.297577 543.808627 
C 487.812398 524.295466 514.374139 497.733684 533.887271 466.218862 
C 553.400403 434.704041 565.337931 399.087326 568.758003 362.178657 
C 572.178075 325.269987 566.988363 288.066204 553.598283 253.502458 
C 540.208203 218.938709 518.979393 187.948513 491.586695 162.976786 
L 330.146723 340.068151 
z
" style="fill: #2ecc71"/>
   </g>
   <g id="patch_9">
    <path d="M 493.73969 144.658441 
C 471.860177 124.712654 446.472579 108.993316 418.865297 98.298203 
C 391.258014 87.60309 361.90618 82.116301 332.299637 82.116301 
L 332.299718 321.749806 
z
" style="fill: #f39c12"/>
   </g>
   <g id="patch_10">
    <path d="M 325.374498 459.442696 
C 357.150272 459.442696 387.62887 446.818047 410.097736 424.349182 
C 432.566601 401.880316 445.19125 371.401718 445.19125 339.625943 
C 445.19125 307.850169 432.566601 277.371571 410.097736 254.902705 
C 387.62887 232.43384 357.150272 219.809191 325.374498 219.809191 
C 293.598723 219.809191 263.120125 232.43384 240.651259 254.902705 
C 218.182394 277.371571 205.557745 307.850169 205.557745 339.625943 
C 205.557745 371.401718 218.182394 401.880316 240.651259 424.349182 
C 263.120125 446.818047 293.598723 459.442696 325.374498 459.442696 
z
" clip-path="url(#p3bf4f9ebf6)" style="fill: #ffffff"/>
   </g>
   <g id="text_1">
    <!-- Logical Deduction -->
    <g style="fill: #262626" transform="translate(7.2 180.917038) scale(0.12 -0.12)">
     <defs>
      <path id="Arial-BoldMT-4c" d="M 491 0 
L 491 4544 
L 1416 4544 
L 1416 772 
L 3716 772 
L 3716 0 
L 491 0 
z
" transform="scale(0.015625)"/>
      <path id="Arial-BoldMT-6f" d="M 256 1706 
Q 256 2144 472 2553 
Q 688 2963 1083 3178 
Q 1478 3394 1966 3394 
Q 2719 3394 3200 2905 
Q 3681 2416 3681 1669 
Q 3681 916 3195 420 
Q 2709 -75 1972 -75 
Q 1516 -75 1102 131 
Q 688 338 472 736 
Q 256 1134 256 1706 
z
M 1156 1659 
Q 1156 1166 1390 903 
Q 1625 641 1969 641 
Q 2313 641 2545 903 
Q 2778 1166 2778 1666 
Q 2778 2153 2545 2415 
Q 2313 2678 1969 2678 
Q 1625 2678 1390 2415 
Q 1156 2153 1156 1659 
z
" transform="scale(0.015625)"/>
      <path id="Arial-BoldMT-67" d="M 378 -219 
L 1381 -341 
Q 1406 -516 1497 -581 
Q 1622 -675 1891 -675 
Q 2234 -675 2406 -572 
Q 2522 -503 2581 -350 
Q 2622 -241 2622 53 
L 2622 538 
Q 2228 0 1628 0 
Q 959 0 569 566 
Q 263 1013 263 1678 
Q 263 2513 664 2953 
Q 1066 3394 1663 3394 
Q 2278 3394 2678 2853 
L 2678 3319 
L 3500 3319 
L 3500 341 
Q 3500 -247 3403 -537 
Q 3306 -828 3131 -993 
Q 2956 -1159 2664 -1253 
Q 2372 -1347 1925 -1347 
Q 1081 -1347 728 -1058 
Q 375 -769 375 -325 
Q 375 -281 378 -219 
z
M 1163 1728 
Q 1163 1200 1367 954 
Q 1572 709 1872 709 
Q 2194 709 2416 961 
Q 2638 1213 2638 1706 
Q 2638 2222 2425 2472 
Q 2213 2722 1888 2722 
Q 1572 2722 1367 2476 
Q 1163 2231 1163 1728 
z
" transform="scale(0.015625)"/>
      <path id="Arial-BoldMT-69" d="M 459 3769 
L 459 4581 
L 1338 4581 
L 1338 3769 
L 459 3769 
z
M 459 0 
L 459 3319 
L 1338 3319 
L 1338 0 
L 459 0 
z
" transform="scale(0.015625)"/>
      <path id="Arial-BoldMT-63" d="M 3353 2338 
L 2488 2181 
Q 2444 2441 2289 2572 
Q 2134 2703 1888 2703 
Q 1559 2703 1364 2476 
Q 1169 2250 1169 1719 
Q 1169 1128 1367 884 
Q 1566 641 1900 641 
Q 2150 641 2309 783 
Q 2469 925 2534 1272 
L 3397 1125 
Q 3263 531 2881 228 
Q 2500 -75 1859 -75 
Q 1131 -75 698 384 
Q 266 844 266 1656 
Q 266 2478 700 2936 
Q 1134 3394 1875 3394 
Q 2481 3394 2839 3133 
Q 3197 2872 3353 2338 
z
" transform="scale(0.015625)"/>
      <path id="Arial-BoldMT-61" d="M 1116 2306 
L 319 2450 
Q 453 2931 781 3162 
Q 1109 3394 1756 3394 
Q 2344 3394 2631 3255 
Q 2919 3116 3036 2902 
Q 3153 2688 3153 2116 
L 3144 1091 
Q 3144 653 3186 445 
Q 3228 238 3344 0 
L 2475 0 
Q 2441 88 2391 259 
Q 2369 338 2359 363 
Q 2134 144 1878 34 
Q 1622 -75 1331 -75 
Q 819 -75 523 203 
Q 228 481 228 906 
Q 228 1188 362 1408 
Q 497 1628 739 1745 
Q 981 1863 1438 1950 
Q 2053 2066 2291 2166 
L 2291 2253 
Q 2291 2506 2166 2614 
Q 2041 2722 1694 2722 
Q 1459 2722 1328 2630 
Q 1197 2538 1116 2306 
z
M 2291 1594 
Q 2122 1538 1756 1459 
Q 1391 1381 1278 1306 
Q 1106 1184 1106 997 
Q 1106 813 1243 678 
Q 1381 544 1594 544 
Q 1831 544 2047 700 
Q 2206 819 2256 991 
Q 2291 1103 2291 1419 
L 2291 1594 
z
" transform="scale(0.015625)"/>
      <path id="Arial-BoldMT-6c" d="M 459 0 
L 459 4581 
L 1338 4581 
L 1338 0 
L 459 0 
z
" transform="scale(0.015625)"/>
      <path id="Arial-BoldMT-20" transform="scale(0.015625)"/>
      <path id="Arial-BoldMT-44" d="M 463 4581 
L 2153 4581 
Q 2725 4581 3025 4494 
Q 3428 4375 3715 4072 
Q 4003 3769 4153 3330 
Q 4303 2891 4303 2247 
Q 4303 1681 4163 1272 
Q 3991 772 3672 463 
Q 3431 228 3022 97 
Q 2716 0 2203 0 
L 463 0 
L 463 4581 
z
M 1388 3806 
L 1388 772 
L 2078 772 
Q 2466 772 2638 816 
Q 2863 872 3011 1006 
Q 3159 1141 3253 1448 
Q 3347 1756 3347 2288 
Q 3347 2819 3253 3103 
Q 3159 3388 2990 3547 
Q 2822 3706 2563 3763 
Q 2369 3806 1803 3806 
L 1388 3806 
z
" transform="scale(0.015625)"/>
      <path id="Arial-BoldMT-65" d="M 2381 1056 
L 3256 909 
Q 3088 428 2723 176 
Q 2359 -75 1813 -75 
Q 947 -75 531 491 
Q 203 944 203 1634 
Q 203 2459 634 2926 
Q 1066 3394 1725 3394 
Q 2466 3394 2894 2905 
Q 3322 2416 3303 1406 
L 1103 1406 
Q 1113 1016 1316 798 
Q 1519 581 1822 581 
Q 2028 581 2168 693 
Q 2309 806 2381 1056 
z
M 2431 1944 
Q 2422 2325 2234 2523 
Q 2047 2722 1778 2722 
Q 1491 2722 1303 2513 
Q 1116 2303 1119 1944 
L 2431 1944 
z
" transform="scale(0.015625)"/>
      <path id="Arial-BoldMT-64" d="M 3503 0 
L 2688 0 
L 2688 488 
Q 2484 203 2207 64 
Q 1931 -75 1650 -75 
Q 1078 -75 670 386 
Q 263 847 263 1672 
Q 263 2516 659 2955 
Q 1056 3394 1663 3394 
Q 2219 3394 2625 2931 
L 2625 4581 
L 3503 4581 
L 3503 0 
z
M 1159 1731 
Q 1159 1200 1306 963 
Q 1519 619 1900 619 
Q 2203 619 2415 876 
Q 2628 1134 2628 1647 
Q 2628 2219 2422 2470 
Q 2216 2722 1894 2722 
Q 1581 2722 1370 2473 
Q 1159 2225 1159 1731 
z
" transform="scale(0.015625)"/>
      <path id="Arial-BoldMT-75" d="M 2644 0 
L 2644 497 
Q 2463 231 2167 78 
Q 1872 -75 1544 -75 
Q 1209 -75 943 72 
Q 678 219 559 484 
Q 441 750 441 1219 
L 441 3319 
L 1319 3319 
L 1319 1794 
Q 1319 1094 1367 936 
Q 1416 778 1544 686 
Q 1672 594 1869 594 
Q 2094 594 2272 717 
Q 2450 841 2515 1023 
Q 2581 1206 2581 1919 
L 2581 3319 
L 3459 3319 
L 3459 0 
L 2644 0 
z
" transform="scale(0.015625)"/>
      <path id="Arial-BoldMT-74" d="M 1981 3319 
L 1981 2619 
L 1381 2619 
L 1381 1281 
Q 1381 875 1398 808 
Q 1416 741 1477 697 
Q 1538 653 1625 653 
Q 1747 653 1978 738 
L 2053 56 
Q 1747 -75 1359 -75 
Q 1122 -75 931 4 
Q 741 84 652 211 
Q 563 338 528 553 
Q 500 706 500 1172 
L 500 2619 
L 97 2619 
L 97 3319 
L 500 3319 
L 500 3978 
L 1381 4491 
L 1381 3319 
L 1981 3319 
z
" transform="scale(0.015625)"/>
      <path id="Arial-BoldMT-6e" d="M 3478 0 
L 2600 0 
L 2600 1694 
Q 2600 2231 2544 2389 
Q 2488 2547 2361 2634 
Q 2234 2722 2056 2722 
Q 1828 2722 1647 2597 
Q 1466 2472 1398 2265 
Q 1331 2059 1331 1503 
L 1331 0 
L 453 0 
L 453 3319 
L 1269 3319 
L 1269 2831 
Q 1703 3394 2363 3394 
Q 2653 3394 2893 3289 
Q 3134 3184 3257 3021 
Q 3381 2859 3429 2653 
Q 3478 2447 3478 2063 
L 3478 0 
z
" transform="scale(0.015625)"/>
     </defs>
     <use xlink:href="#Arial-BoldMT-4c"/>
     <use xlink:href="#Arial-BoldMT-6f" transform="translate(61.083984 0)"/>
     <use xlink:href="#Arial-BoldMT-67" transform="translate(122.167969 0)"/>
     <use xlink:href="#Arial-BoldMT-69" transform="translate(183.251953 0)"/>
     <use xlink:href="#Arial-BoldMT-63" transform="translate(211.035156 0)"/>
     <use xlink:href="#Arial-BoldMT-61" transform="translate(266.650391 0)"/>
     <use xlink:href="#Arial-BoldMT-6c" transform="translate(322.265625 0)"/>
     <use xlink:href="#Arial-BoldMT-20" transform="translate(350.048828 0)"/>
     <use xlink:href="#Arial-BoldMT-44" transform="translate(377.832031 0)"/>
     <use xlink:href="#Arial-BoldMT-65" transform="translate(450.048828 0)"/>
     <use xlink:href="#Arial-BoldMT-64" transform="translate(505.664062 0)"/>
     <use xlink:href="#Arial-BoldMT-75" transform="translate(566.748047 0)"/>
     <use xlink:href="#Arial-BoldMT-63" transform="translate(627.832031 0)"/>
     <use xlink:href="#Arial-BoldMT-74" transform="translate(683.447266 0)"/>
     <use xlink:href="#Arial-BoldMT-69" transform="translate(716.748047 0)"/>
     <use xlink:href="#Arial-BoldMT-6f" transform="translate(744.53125 0)"/>
     <use xlink:href="#Arial-BoldMT-6e" transform="translate(805.615234 0)"/>
    </g>
   </g>
   <g id="text_2">
    <!-- 29.4% -->
    <g style="fill: #ffffff" transform="translate(191.216628 246.980103) scale(0.11 -0.11)">
     <defs>
      <path id="Arial-BoldMT-32" d="M 3238 816 
L 3238 0 
L 159 0 
Q 209 463 459 877 
Q 709 1291 1447 1975 
Q 2041 2528 2175 2725 
Q 2356 2997 2356 3263 
Q 2356 3556 2198 3714 
Q 2041 3872 1763 3872 
Q 1488 3872 1325 3706 
Q 1163 3541 1138 3156 
L 263 3244 
Q 341 3969 753 4284 
Q 1166 4600 1784 4600 
Q 2463 4600 2850 4234 
Q 3238 3869 3238 3325 
Q 3238 3016 3127 2736 
Q 3016 2456 2775 2150 
Q 2616 1947 2200 1565 
Q 1784 1184 1673 1059 
Q 1563 934 1494 816 
L 3238 816 
z
" transform="scale(0.015625)"/>
      <path id="Arial-BoldMT-39" d="M 291 1059 
L 1141 1153 
Q 1172 894 1303 769 
Q 1434 644 1650 644 
Q 1922 644 2112 894 
Q 2303 1144 2356 1931 
Q 2025 1547 1528 1547 
Q 988 1547 595 1964 
Q 203 2381 203 3050 
Q 203 3747 617 4173 
Q 1031 4600 1672 4600 
Q 2369 4600 2816 4061 
Q 3263 3522 3263 2288 
Q 3263 1031 2797 475 
Q 2331 -81 1584 -81 
Q 1047 -81 715 205 
Q 384 491 291 1059 
z
M 2278 2978 
Q 2278 3403 2083 3637 
Q 1888 3872 1631 3872 
Q 1388 3872 1227 3680 
Q 1066 3488 1066 3050 
Q 1066 2606 1241 2398 
Q 1416 2191 1678 2191 
Q 1931 2191 2104 2391 
Q 2278 2591 2278 2978 
z
" transform="scale(0.015625)"/>
      <path id="Arial-BoldMT-2e" d="M 459 0 
L 459 878 
L 1338 878 
L 1338 0 
L 459 0 
z
" transform="scale(0.015625)"/>
      <path id="Arial-BoldMT-34" d="M 1994 0 
L 1994 922 
L 119 922 
L 119 1691 
L 2106 4600 
L 2844 4600 
L 2844 1694 
L 3413 1694 
L 3413 922 
L 2844 922 
L 2844 0 
L 1994 0 
z
M 1994 1694 
L 1994 3259 
L 941 1694 
L 1994 1694 
z
" transform="scale(0.015625)"/>
      <path id="Arial-BoldMT-25" d="M 278 3450 
Q 278 4066 548 4362 
Q 819 4659 1281 4659 
Q 1759 4659 2029 4364 
Q 2300 4069 2300 3450 
Q 2300 2834 2029 2537 
Q 1759 2241 1297 2241 
Q 819 2241 548 2536 
Q 278 2831 278 3450 
z
M 963 3456 
Q 963 3009 1066 2856 
Q 1144 2744 1281 2744 
Q 1422 2744 1500 2856 
Q 1600 3009 1600 3456 
Q 1600 3903 1500 4053 
Q 1422 4169 1281 4169 
Q 1144 4169 1066 4056 
Q 963 3903 963 3456 
z
M 1950 -175 
L 1300 -175 
L 3741 4659 
L 4372 4659 
L 1950 -175 
z
M 3369 1028 
Q 3369 1644 3639 1941 
Q 3909 2238 4378 2238 
Q 4850 2238 5120 1941 
Q 5391 1644 5391 1028 
Q 5391 409 5120 112 
Q 4850 -184 4388 -184 
Q 3909 -184 3639 112 
Q 3369 409 3369 1028 
z
M 4053 1031 
Q 4053 584 4156 434 
Q 4234 319 4372 319 
Q 4513 319 4588 431 
Q 4691 584 4691 1031 
Q 4691 1478 4591 1631 
Q 4513 1744 4372 1744 
Q 4231 1744 4156 1631 
Q 4053 1478 4053 1031 
z
" transform="scale(0.015625)"/>
     </defs>
     <use xlink:href="#Arial-BoldMT-32"/>
     <use xlink:href="#Arial-BoldMT-39" transform="translate(55.615234 0)"/>
     <use xlink:href="#Arial-BoldMT-2e" transform="translate(111.230469 0)"/>
     <use xlink:href="#Arial-BoldMT-34" transform="translate(139.013672 0)"/>
     <use xlink:href="#Arial-BoldMT-25" transform="translate(194.628906 0)"/>
    </g>
    <!-- (15) -->
    <g style="fill: #ffffff" transform="translate(197.03116 258.760072) scale(0.11 -0.11)">
     <defs>
      <path id="Arial-BoldMT-28" d="M 1916 -1347 
L 1313 -1347 
Q 834 -625 584 153 
Q 334 931 334 1659 
Q 334 2563 644 3369 
Q 913 4069 1325 4659 
L 1925 4659 
Q 1497 3713 1336 3048 
Q 1175 2384 1175 1641 
Q 1175 1128 1270 590 
Q 1366 53 1531 -431 
Q 1641 -750 1916 -1347 
z
" transform="scale(0.015625)"/>
      <path id="Arial-BoldMT-31" d="M 2519 0 
L 1641 0 
L 1641 3309 
Q 1159 2859 506 2644 
L 506 3441 
Q 850 3553 1253 3867 
Q 1656 4181 1806 4600 
L 2519 4600 
L 2519 0 
z
" transform="scale(0.015625)"/>
      <path id="Arial-BoldMT-35" d="M 284 1178 
L 1159 1269 
Q 1197 972 1381 798 
Q 1566 625 1806 625 
Q 2081 625 2272 848 
Q 2463 1072 2463 1522 
Q 2463 1944 2273 2155 
Q 2084 2366 1781 2366 
Q 1403 2366 1103 2031 
L 391 2134 
L 841 4519 
L 3163 4519 
L 3163 3697 
L 1506 3697 
L 1369 2919 
Q 1663 3066 1969 3066 
Q 2553 3066 2959 2641 
Q 3366 2216 3366 1538 
Q 3366 972 3038 528 
Q 2591 -78 1797 -78 
Q 1163 -78 763 262 
Q 363 603 284 1178 
z
" transform="scale(0.015625)"/>
      <path id="Arial-BoldMT-29" d="M 216 -1347 
Q 475 -791 581 -494 
Q 688 -197 778 190 
Q 869 578 912 926 
Q 956 1275 956 1641 
Q 956 2384 797 3048 
Q 638 3713 209 4659 
L 806 4659 
Q 1278 3988 1539 3234 
Q 1800 2481 1800 1706 
Q 1800 1053 1594 306 
Q 1359 -531 822 -1347 
L 216 -1347 
z
" transform="scale(0.015625)"/>
     </defs>
     <use xlink:href="#Arial-BoldMT-28"/>
     <use xlink:href="#Arial-BoldMT-31" transform="translate(33.300781 0)"/>
     <use xlink:href="#Arial-BoldMT-35" transform="translate(88.916016 0)"/>
     <use xlink:href="#Arial-BoldMT-29" transform="translate(144.53125 0)"/>
    </g>
   </g>
   <g id="text_3">
    <!-- Math Reasoning -->
    <g style="fill: #262626" transform="translate(135.756714 592.923625) scale(0.12 -0.12)">
     <defs>
      <path id="Arial-BoldMT-4d" d="M 453 0 
L 453 4581 
L 1838 4581 
L 2669 1456 
L 3491 4581 
L 4878 4581 
L 4878 0 
L 4019 0 
L 4019 3606 
L 3109 0 
L 2219 0 
L 1313 3606 
L 1313 0 
L 453 0 
z
" transform="scale(0.015625)"/>
      <path id="Arial-BoldMT-68" d="M 1334 4581 
L 1334 2897 
Q 1759 3394 2350 3394 
Q 2653 3394 2897 3281 
Q 3141 3169 3264 2994 
Q 3388 2819 3433 2606 
Q 3478 2394 3478 1947 
L 3478 0 
L 2600 0 
L 2600 1753 
Q 2600 2275 2550 2415 
Q 2500 2556 2373 2639 
Q 2247 2722 2056 2722 
Q 1838 2722 1666 2615 
Q 1494 2509 1414 2295 
Q 1334 2081 1334 1663 
L 1334 0 
L 456 0 
L 456 4581 
L 1334 4581 
z
" transform="scale(0.015625)"/>
      <path id="Arial-BoldMT-52" d="M 469 0 
L 469 4581 
L 2416 4581 
Q 3150 4581 3483 4457 
Q 3816 4334 4016 4018 
Q 4216 3703 4216 3297 
Q 4216 2781 3912 2445 
Q 3609 2109 3006 2022 
Q 3306 1847 3501 1637 
Q 3697 1428 4028 894 
L 4588 0 
L 3481 0 
L 2813 997 
Q 2456 1531 2325 1670 
Q 2194 1809 2047 1861 
Q 1900 1913 1581 1913 
L 1394 1913 
L 1394 0 
L 469 0 
z
M 1394 2644 
L 2078 2644 
Q 2744 2644 2909 2700 
Q 3075 2756 3169 2893 
Q 3263 3031 3263 3238 
Q 3263 3469 3139 3611 
Q 3016 3753 2791 3791 
Q 2678 3806 2116 3806 
L 1394 3806 
L 1394 2644 
z
" transform="scale(0.015625)"/>
      <path id="Arial-BoldMT-73" d="M 150 947 
L 1031 1081 
Q 1088 825 1259 692 
Q 1431 559 1741 559 
Q 2081 559 2253 684 
Q 2369 772 2369 919 
Q 2369 1019 2306 1084 
Q 2241 1147 2013 1200 
Q 950 1434 666 1628 
Q 272 1897 272 2375 
Q 272 2806 612 3100 
Q 953 3394 1669 3394 
Q 2350 3394 2681 3172 
Q 3013 2950 3138 2516 
L 2309 2363 
Q 2256 2556 2107 2659 
Q 1959 2763 1684 2763 
Q 1338 2763 1188 2666 
Q 1088 2597 1088 2488 
Q 1088 2394 1175 2328 
Q 1294 2241 1995 2081 
Q 2697 1922 2975 1691 
Q 3250 1456 3250 1038 
Q 3250 581 2869 253 
Q 2488 -75 1741 -75 
Q 1063 -75 667 200 
Q 272 475 150 947 
z
" transform="scale(0.015625)"/>
     </defs>
     <use xlink:href="#Arial-BoldMT-4d"/>
     <use xlink:href="#Arial-BoldMT-61" transform="translate(83.300781 0)"/>
     <use xlink:href="#Arial-BoldMT-74" transform="translate(138.916016 0)"/>
     <use xlink:href="#Arial-BoldMT-68" transform="translate(172.216797 0)"/>
     <use xlink:href="#Arial-BoldMT-20" transform="translate(233.300781 0)"/>
     <use xlink:href="#Arial-BoldMT-52" transform="translate(261.083984 0)"/>
     <use xlink:href="#Arial-BoldMT-65" transform="translate(333.300781 0)"/>
     <use xlink:href="#Arial-BoldMT-61" transform="translate(388.916016 0)"/>
     <use xlink:href="#Arial-BoldMT-73" transform="translate(444.53125 0)"/>
     <use xlink:href="#Arial-BoldMT-6f" transform="translate(500.146484 0)"/>
     <use xlink:href="#Arial-BoldMT-6e" transform="translate(561.230469 0)"/>
     <use xlink:href="#Arial-BoldMT-69" transform="translate(622.314453 0)"/>
     <use xlink:href="#Arial-BoldMT-6e" transform="translate(650.097656 0)"/>
     <use xlink:href="#Arial-BoldMT-67" transform="translate(711.181641 0)"/>
    </g>
   </g>
   <g id="text_4">
    <!-- 29.4% -->
    <g style="fill: #ffffff" transform="translate(256.109642 475.055178) scale(0.11 -0.11)">
     <use xlink:href="#Arial-BoldMT-32"/>
     <use xlink:href="#Arial-BoldMT-39" transform="translate(55.615234 0)"/>
     <use xlink:href="#Arial-BoldMT-2e" transform="translate(111.230469 0)"/>
     <use xlink:href="#Arial-BoldMT-34" transform="translate(139.013672 0)"/>
     <use xlink:href="#Arial-BoldMT-25" transform="translate(194.628906 0)"/>
    </g>
    <!-- (15) -->
    <g style="fill: #ffffff" transform="translate(261.924173 486.835146) scale(0.11 -0.11)">
     <use xlink:href="#Arial-BoldMT-28"/>
     <use xlink:href="#Arial-BoldMT-31" transform="translate(33.300781 0)"/>
     <use xlink:href="#Arial-BoldMT-35" transform="translate(88.916016 0)"/>
     <use xlink:href="#Arial-BoldMT-29" transform="translate(144.53125 0)"/>
    </g>
   </g>
   <g id="text_5">
    <!-- Causal Reasoning -->
    <g style="fill: #262626" transform="translate(592.619141 367.494581) scale(0.12 -0.12)">
     <defs>
      <path id="Arial-BoldMT-43" d="M 3397 1684 
L 4294 1400 
Q 4088 650 3608 286 
Q 3128 -78 2391 -78 
Q 1478 -78 890 545 
Q 303 1169 303 2250 
Q 303 3394 893 4026 
Q 1484 4659 2447 4659 
Q 3288 4659 3813 4163 
Q 4125 3869 4281 3319 
L 3366 3100 
Q 3284 3456 3026 3662 
Q 2769 3869 2400 3869 
Q 1891 3869 1573 3503 
Q 1256 3138 1256 2319 
Q 1256 1450 1568 1081 
Q 1881 713 2381 713 
Q 2750 713 3015 947 
Q 3281 1181 3397 1684 
z
" transform="scale(0.015625)"/>
     </defs>
     <use xlink:href="#Arial-BoldMT-43"/>
     <use xlink:href="#Arial-BoldMT-61" transform="translate(72.216797 0)"/>
     <use xlink:href="#Arial-BoldMT-75" transform="translate(127.832031 0)"/>
     <use xlink:href="#Arial-BoldMT-73" transform="translate(188.916016 0)"/>
     <use xlink:href="#Arial-BoldMT-61" transform="translate(244.53125 0)"/>
     <use xlink:href="#Arial-BoldMT-6c" transform="translate(300.146484 0)"/>
     <use xlink:href="#Arial-BoldMT-20" transform="translate(327.929688 0)"/>
     <use xlink:href="#Arial-BoldMT-52" transform="translate(355.712891 0)"/>
     <use xlink:href="#Arial-BoldMT-65" transform="translate(427.929688 0)"/>
     <use xlink:href="#Arial-BoldMT-61" transform="translate(483.544922 0)"/>
     <use xlink:href="#Arial-BoldMT-73" transform="translate(539.160156 0)"/>
     <use xlink:href="#Arial-BoldMT-6f" transform="translate(594.775391 0)"/>
     <use xlink:href="#Arial-BoldMT-6e" transform="translate(655.859375 0)"/>
     <use xlink:href="#Arial-BoldMT-69" transform="translate(716.943359 0)"/>
     <use xlink:href="#Arial-BoldMT-6e" transform="translate(744.726562 0)"/>
     <use xlink:href="#Arial-BoldMT-67" transform="translate(805.810547 0)"/>
    </g>
   </g>
   <g id="text_6">
    <!-- 29.4% -->
    <g style="fill: #ffffff" transform="translate(457.719278 350.22362) scale(0.11 -0.11)">
     <use xlink:href="#Arial-BoldMT-32"/>
     <use xlink:href="#Arial-BoldMT-39" transform="translate(55.615234 0)"/>
     <use xlink:href="#Arial-BoldMT-2e" transform="translate(111.230469 0)"/>
     <use xlink:href="#Arial-BoldMT-34" transform="translate(139.013672 0)"/>
     <use xlink:href="#Arial-BoldMT-25" transform="translate(194.628906 0)"/>
    </g>
    <!-- (15) -->
    <g style="fill: #ffffff" transform="translate(463.533809 362.003589) scale(0.11 -0.11)">
     <use xlink:href="#Arial-BoldMT-28"/>
     <use xlink:href="#Arial-BoldMT-31" transform="translate(33.300781 0)"/>
     <use xlink:href="#Arial-BoldMT-35" transform="translate(88.916016 0)"/>
     <use xlink:href="#Arial-BoldMT-29" transform="translate(144.53125 0)"/>
    </g>
   </g>
   <g id="text_7">
    <!-- Analogical Reasoning -->
    <g style="fill: #262626" transform="translate(427.521502 78.984785) scale(0.12 -0.12)">
     <defs>
      <path id="Arial-BoldMT-41" d="M 4597 0 
L 3591 0 
L 3191 1041 
L 1359 1041 
L 981 0 
L 0 0 
L 1784 4581 
L 2763 4581 
L 4597 0 
z
M 2894 1813 
L 2263 3513 
L 1644 1813 
L 2894 1813 
z
" transform="scale(0.015625)"/>
     </defs>
     <use xlink:href="#Arial-BoldMT-41"/>
     <use xlink:href="#Arial-BoldMT-6e" transform="translate(72.216797 0)"/>
     <use xlink:href="#Arial-BoldMT-61" transform="translate(133.300781 0)"/>
     <use xlink:href="#Arial-BoldMT-6c" transform="translate(188.916016 0)"/>
     <use xlink:href="#Arial-BoldMT-6f" transform="translate(216.699219 0)"/>
     <use xlink:href="#Arial-BoldMT-67" transform="translate(277.783203 0)"/>
     <use xlink:href="#Arial-BoldMT-69" transform="translate(338.867188 0)"/>
     <use xlink:href="#Arial-BoldMT-63" transform="translate(366.650391 0)"/>
     <use xlink:href="#Arial-BoldMT-61" transform="translate(422.265625 0)"/>
     <use xlink:href="#Arial-BoldMT-6c" transform="translate(477.880859 0)"/>
     <use xlink:href="#Arial-BoldMT-20" transform="translate(505.664062 0)"/>
     <use xlink:href="#Arial-BoldMT-52" transform="translate(533.447266 0)"/>
     <use xlink:href="#Arial-BoldMT-65" transform="translate(605.664062 0)"/>
     <use xlink:href="#Arial-BoldMT-61" transform="translate(661.279297 0)"/>
     <use xlink:href="#Arial-BoldMT-73" transform="translate(716.894531 0)"/>
     <use xlink:href="#Arial-BoldMT-6f" transform="translate(772.509766 0)"/>
     <use xlink:href="#Arial-BoldMT-6e" transform="translate(833.59375 0)"/>
     <use xlink:href="#Arial-BoldMT-69" transform="translate(894.677734 0)"/>
     <use xlink:href="#Arial-BoldMT-6e" transform="translate(922.460938 0)"/>
     <use xlink:href="#Arial-BoldMT-67" transform="translate(983.544922 0)"/>
    </g>
   </g>
   <g id="text_8">
    <!-- 11.8% -->
    <g style="fill: #ffffff" transform="translate(368.947154 184.568006) scale(0.11 -0.11)">
     <defs>
      <path id="Arial-BoldMT-38" d="M 1025 2472 
Q 684 2616 529 2867 
Q 375 3119 375 3419 
Q 375 3931 733 4265 
Q 1091 4600 1750 4600 
Q 2403 4600 2764 4265 
Q 3125 3931 3125 3419 
Q 3125 3100 2959 2851 
Q 2794 2603 2494 2472 
Q 2875 2319 3073 2025 
Q 3272 1731 3272 1347 
Q 3272 713 2867 316 
Q 2463 -81 1791 -81 
Q 1166 -81 750 247 
Q 259 634 259 1309 
Q 259 1681 443 1992 
Q 628 2303 1025 2472 
z
M 1206 3356 
Q 1206 3094 1354 2947 
Q 1503 2800 1750 2800 
Q 2000 2800 2150 2948 
Q 2300 3097 2300 3359 
Q 2300 3606 2151 3754 
Q 2003 3903 1759 3903 
Q 1506 3903 1356 3753 
Q 1206 3603 1206 3356 
z
M 1125 1394 
Q 1125 1031 1311 828 
Q 1497 625 1775 625 
Q 2047 625 2225 820 
Q 2403 1016 2403 1384 
Q 2403 1706 2222 1901 
Q 2041 2097 1763 2097 
Q 1441 2097 1283 1875 
Q 1125 1653 1125 1394 
z
" transform="scale(0.015625)"/>
     </defs>
     <use xlink:href="#Arial-BoldMT-31"/>
     <use xlink:href="#Arial-BoldMT-31" transform="translate(50.115234 0)"/>
     <use xlink:href="#Arial-BoldMT-2e" transform="translate(105.730469 0)"/>
     <use xlink:href="#Arial-BoldMT-38" transform="translate(133.513672 0)"/>
     <use xlink:href="#Arial-BoldMT-25" transform="translate(189.128906 0)"/>
    </g>
    <!-- (6) -->
    <g style="fill: #ffffff" transform="translate(377.517701 196.347975) scale(0.11 -0.11)">
     <defs>
      <path id="Arial-BoldMT-36" d="M 3247 3459 
L 2397 3366 
Q 2366 3628 2234 3753 
Q 2103 3878 1894 3878 
Q 1616 3878 1423 3628 
Q 1231 3378 1181 2588 
Q 1509 2975 1997 2975 
Q 2547 2975 2939 2556 
Q 3331 2138 3331 1475 
Q 3331 772 2918 347 
Q 2506 -78 1859 -78 
Q 1166 -78 719 461 
Q 272 1000 272 2228 
Q 272 3488 737 4044 
Q 1203 4600 1947 4600 
Q 2469 4600 2811 4308 
Q 3153 4016 3247 3459 
z
M 1256 1544 
Q 1256 1116 1453 883 
Q 1650 650 1903 650 
Q 2147 650 2309 840 
Q 2472 1031 2472 1466 
Q 2472 1913 2297 2120 
Q 2122 2328 1859 2328 
Q 1606 2328 1431 2129 
Q 1256 1931 1256 1544 
z
" transform="scale(0.015625)"/>
     </defs>
     <use xlink:href="#Arial-BoldMT-28"/>
     <use xlink:href="#Arial-BoldMT-36" transform="translate(33.300781 0)"/>
     <use xlink:href="#Arial-BoldMT-29" transform="translate(88.916016 0)"/>
    </g>
   </g>
   <g id="text_9">
    <!-- 51 -->
    <g style="fill: #2c3e50" transform="translate(312.028248 333.171818) scale(0.24 -0.24)">
     <use xlink:href="#Arial-BoldMT-35"/>
     <use xlink:href="#Arial-BoldMT-31" transform="translate(55.615234 0)"/>
    </g>
    <!-- Problems -->
    <g style="fill: #2c3e50" transform="translate(270.690123 358.522568) scale(0.24 -0.24)">
     <defs>
      <path id="Arial-BoldMT-50" d="M 466 0 
L 466 4581 
L 1950 4581 
Q 2794 4581 3050 4513 
Q 3444 4409 3709 4064 
Q 3975 3719 3975 3172 
Q 3975 2750 3822 2462 
Q 3669 2175 3433 2011 
Q 3197 1847 2953 1794 
Q 2622 1728 1994 1728 
L 1391 1728 
L 1391 0 
L 466 0 
z
M 1391 3806 
L 1391 2506 
L 1897 2506 
Q 2444 2506 2628 2578 
Q 2813 2650 2917 2803 
Q 3022 2956 3022 3159 
Q 3022 3409 2875 3571 
Q 2728 3734 2503 3775 
Q 2338 3806 1838 3806 
L 1391 3806 
z
" transform="scale(0.015625)"/>
      <path id="Arial-BoldMT-72" d="M 1300 0 
L 422 0 
L 422 3319 
L 1238 3319 
L 1238 2847 
Q 1447 3181 1614 3287 
Q 1781 3394 1994 3394 
Q 2294 3394 2572 3228 
L 2300 2463 
Q 2078 2606 1888 2606 
Q 1703 2606 1575 2504 
Q 1447 2403 1373 2137 
Q 1300 1872 1300 1025 
L 1300 0 
z
" transform="scale(0.015625)"/>
      <path id="Arial-BoldMT-62" d="M 422 0 
L 422 4581 
L 1300 4581 
L 1300 2931 
Q 1706 3394 2263 3394 
Q 2869 3394 3266 2955 
Q 3663 2516 3663 1694 
Q 3663 844 3258 384 
Q 2853 -75 2275 -75 
Q 1991 -75 1714 67 
Q 1438 209 1238 488 
L 1238 0 
L 422 0 
z
M 1294 1731 
Q 1294 1216 1456 969 
Q 1684 619 2063 619 
Q 2353 619 2558 867 
Q 2763 1116 2763 1650 
Q 2763 2219 2556 2470 
Q 2350 2722 2028 2722 
Q 1713 2722 1503 2476 
Q 1294 2231 1294 1731 
z
" transform="scale(0.015625)"/>
      <path id="Arial-BoldMT-6d" d="M 394 3319 
L 1203 3319 
L 1203 2866 
Q 1638 3394 2238 3394 
Q 2556 3394 2790 3262 
Q 3025 3131 3175 2866 
Q 3394 3131 3647 3262 
Q 3900 3394 4188 3394 
Q 4553 3394 4806 3245 
Q 5059 3097 5184 2809 
Q 5275 2597 5275 2122 
L 5275 0 
L 4397 0 
L 4397 1897 
Q 4397 2391 4306 2534 
Q 4184 2722 3931 2722 
Q 3747 2722 3584 2609 
Q 3422 2497 3350 2280 
Q 3278 2063 3278 1594 
L 3278 0 
L 2400 0 
L 2400 1819 
Q 2400 2303 2353 2443 
Q 2306 2584 2207 2653 
Q 2109 2722 1941 2722 
Q 1738 2722 1575 2612 
Q 1413 2503 1342 2297 
Q 1272 2091 1272 1613 
L 1272 0 
L 394 0 
L 394 3319 
z
" transform="scale(0.015625)"/>
     </defs>
     <use xlink:href="#Arial-BoldMT-50"/>
     <use xlink:href="#Arial-BoldMT-72" transform="translate(66.699219 0)"/>
     <use xlink:href="#Arial-BoldMT-6f" transform="translate(105.615234 0)"/>
     <use xlink:href="#Arial-BoldMT-62" transform="translate(166.699219 0)"/>
     <use xlink:href="#Arial-BoldMT-6c" transform="translate(227.783203 0)"/>
     <use xlink:href="#Arial-BoldMT-65" transform="translate(255.566406 0)"/>
     <use xlink:href="#Arial-BoldMT-6d" transform="translate(311.181641 0)"/>
     <use xlink:href="#Arial-BoldMT-73" transform="translate(400.097656 0)"/>
    </g>
   </g>
   <g id="text_10">
    <!-- 📊 CORE-Bench Problem Distribution -->
    <g style="fill: #262626" transform="translate(168.121998 20.084062) scale(0.18 -0.18)">
     <defs>
      <path id="Arial-BoldMT-1f4ca" d="M 800 0 
L 800 4000 
L 4000 4000 
L 4000 0 
L 800 0 
z
M 900 100 
L 3900 100 
L 3900 3900 
L 900 3900 
L 900 100 
z
" transform="scale(0.015625)"/>
      <path id="Arial-BoldMT-4f" d="M 278 2263 
Q 278 2963 488 3438 
Q 644 3788 914 4066 
Q 1184 4344 1506 4478 
Q 1934 4659 2494 4659 
Q 3506 4659 4114 4031 
Q 4722 3403 4722 2284 
Q 4722 1175 4119 548 
Q 3516 -78 2506 -78 
Q 1484 -78 881 545 
Q 278 1169 278 2263 
z
M 1231 2294 
Q 1231 1516 1590 1114 
Q 1950 713 2503 713 
Q 3056 713 3411 1111 
Q 3766 1509 3766 2306 
Q 3766 3094 3420 3481 
Q 3075 3869 2503 3869 
Q 1931 3869 1581 3476 
Q 1231 3084 1231 2294 
z
" transform="scale(0.015625)"/>
      <path id="Arial-BoldMT-45" d="M 466 0 
L 466 4581 
L 3863 4581 
L 3863 3806 
L 1391 3806 
L 1391 2791 
L 3691 2791 
L 3691 2019 
L 1391 2019 
L 1391 772 
L 3950 772 
L 3950 0 
L 466 0 
z
" transform="scale(0.015625)"/>
      <path id="Arial-BoldMT-2d" d="M 359 1222 
L 359 2100 
L 2084 2100 
L 2084 1222 
L 359 1222 
z
" transform="scale(0.015625)"/>
      <path id="Arial-BoldMT-42" d="M 469 4581 
L 2300 4581 
Q 2844 4581 3111 4536 
Q 3378 4491 3589 4347 
Q 3800 4203 3940 3964 
Q 4081 3725 4081 3428 
Q 4081 3106 3907 2837 
Q 3734 2569 3438 2434 
Q 3856 2313 4081 2019 
Q 4306 1725 4306 1328 
Q 4306 1016 4161 720 
Q 4016 425 3764 248 
Q 3513 72 3144 31 
Q 2913 6 2028 0 
L 469 0 
L 469 4581 
z
M 1394 3819 
L 1394 2759 
L 2000 2759 
Q 2541 2759 2672 2775 
Q 2909 2803 3045 2939 
Q 3181 3075 3181 3297 
Q 3181 3509 3064 3642 
Q 2947 3775 2716 3803 
Q 2578 3819 1925 3819 
L 1394 3819 
z
M 1394 1997 
L 1394 772 
L 2250 772 
Q 2750 772 2884 800 
Q 3091 838 3220 983 
Q 3350 1128 3350 1372 
Q 3350 1578 3250 1722 
Q 3150 1866 2961 1931 
Q 2772 1997 2141 1997 
L 1394 1997 
z
" transform="scale(0.015625)"/>
     </defs>
     <use xlink:href="#Arial-BoldMT-1f4ca"/>
     <use xlink:href="#Arial-BoldMT-20" transform="translate(75 0)"/>
     <use xlink:href="#Arial-BoldMT-43" transform="translate(102.783203 0)"/>
     <use xlink:href="#Arial-BoldMT-4f" transform="translate(175 0)"/>
     <use xlink:href="#Arial-BoldMT-52" transform="translate(252.783203 0)"/>
     <use xlink:href="#Arial-BoldMT-45" transform="translate(325 0)"/>
     <use xlink:href="#Arial-BoldMT-2d" transform="translate(391.699219 0)"/>
     <use xlink:href="#Arial-BoldMT-42" transform="translate(425 0)"/>
     <use xlink:href="#Arial-BoldMT-65" transform="translate(497.216797 0)"/>
     <use xlink:href="#Arial-BoldMT-6e" transform="translate(552.832031 0)"/>
     <use xlink:href="#Arial-BoldMT-63" transform="translate(613.916016 0)"/>
     <use xlink:href="#Arial-BoldMT-68" transform="translate(669.53125 0)"/>
     <use xlink:href="#Arial-BoldMT-20" transform="translate(730.615234 0)"/>
     <use xlink:href="#Arial-BoldMT-50" transform="translate(758.398438 0)"/>
     <use xlink:href="#Arial-BoldMT-72" transform="translate(825.097656 0)"/>
     <use xlink:href="#Arial-BoldMT-6f" transform="translate(864.013672 0)"/>
     <use xlink:href="#Arial-BoldMT-62" transform="translate(925.097656 0)"/>
     <use xlink:href="#Arial-BoldMT-6c" transform="translate(986.181641 0)"/>
     <use xlink:href="#Arial-BoldMT-65" transform="translate(1013.964844 0)"/>
     <use xlink:href="#Arial-BoldMT-6d" transform="translate(1069.580078 0)"/>
     <use xlink:href="#Arial-BoldMT-20" transform="translate(1158.496094 0)"/>
     <use xlink:href="#Arial-BoldMT-44" transform="translate(1186.279297 0)"/>
     <use xlink:href="#Arial-BoldMT-69" transform="translate(1258.496094 0)"/>
     <use xlink:href="#Arial-BoldMT-73" transform="translate(1286.279297 0)"/>
     <use xlink:href="#Arial-BoldMT-74" transform="translate(1341.894531 0)"/>
     <use xlink:href="#Arial-BoldMT-72" transform="translate(1375.195312 0)"/>
     <use xlink:href="#Arial-BoldMT-69" transform="translate(1414.111328 0)"/>
     <use xlink:href="#Arial-BoldMT-62" transform="translate(1441.894531 0)"/>
     <use xlink:href="#Arial-BoldMT-75" transform="translate(1502.978516 0)"/>
     <use xlink:href="#Arial-BoldMT-74" transform="translate(1564.0625 0)"/>
     <use xlink:href="#Arial-BoldMT-69" transform="translate(1597.363281 0)"/>
     <use xlink:href="#Arial-BoldMT-6f" transform="translate(1625.146484 0)"/>
     <use xlink:href="#Arial-BoldMT-6e" transform="translate(1686.230469 0)"/>
    </g>
   </g>
  </g>
 </g>
 <defs>
  <clipPath id="p3bf4f9ebf6">
   <rect x="25.832617" y="40.084062" width="599.083762" height="599.083762"/>
  </clipPath>
 </defs>
</svg>
